PathFileType	4	(X/Y/Z)	Patient4_TMGait_0pt5_02_left_30.trc.trc
DataRate	CameraRate	NumFrames	NumMarkers	Units	OrigDataRate	OrigDataStartFrame	OrigNumFrames
75.268817204301	75.268817204301	4	33	mm	75.268817204301	89	       141
Frame#	Time	Sacral			L.Shoulder			Chest			R.Shoulder			Neck			R.ASIS			L.ASIS			R.Thigh.Superior			R.Thigh.Lateral			R.Thigh.Inferior			R.Patella			L.Thigh.Superior			L.Thigh.Lateral			L.Thigh.Inferior			L.Patella			L.Shank.Superior			L.Shank.Lateral			L.Shank.Inferior			R.Shank.Superior			R.Shank.Lateral			R.Shank.Inferior			R.Heel			R.Midfoot.Superior			R.Midfoot.Lateral			R.Toe			L.Heel			L.Midfoot.Lateral			L.Midfoot.Superior			L.Toe			L.Elbow			L.Wrist			R.Elbow			R.Wrist			
		X1	Y1	Z1	X2	Y2	Z2	X3	Y3	Z3	X4	Y4	Z4	X5	Y5	Z5	X6	Y6	Z6	X7	Y7	Z7	X8	Y8	Z8	X9	Y9	Z9	X10	Y10	Z10	X11	Y11	Z11	X12	Y12	Z12	X13	Y13	Z13	X14	Y14	Z14	X15	Y15	Z15	X16	Y16	Z16	X17	Y17	Z17	X18	Y18	Z18	X19	Y19	Z19	X20	Y20	Z20	X21	Y21	Z21	X22	Y22	Z22	X23	Y23	Z23	X24	Y24	Z24	X25	Y25	Z25	X26	Y26	Z26	X27	Y27	Z27	X28	Y28	Z28	X29	Y29	Z29	X30	Y30	Z30	X31	Y31	Z31	X32	Y32	Z32	X33	Y33	Z33	

89	39.609142857143	712.116544292886	997.571814420925	487.763134885781	884.155087398837	1435.153621959393	325.830195183706	976.526692025978	1363.730117444905	493.083257700866	876.731177119879	1431.262800116139	662.602936251808	868.173271515411	1491.900785712745	478.927164845754	934.819728703770	937.011211575395	616.398143758758	932.363336426277	959.607683778375	342.248551185470	1000.205997905561	748.454672655758	584.416662612565	930.835128835532	632.229796206906	640.803291172409	1017.365742983720	588.812910047011	563.254804524072	1029.149682162406	497.996482532700	569.656687236056	959.637150904965	734.071726222706	364.883512946135	863.170981200653	625.835787826262	299.849394338154	939.639702291626	536.570647526059	360.392381234017	927.381182918361	453.281490003460	358.979409058824	863.085182944277	395.359258269710	353.004403312975	727.568675537991	339.808418149454	303.776453344246	722.792072690275	213.084583812295	364.445423324768	1002.733248692144	407.592249449412	576.266943030106	933.443316158736	301.444111000106	635.802110432509	980.710394940662	208.179707237522	574.765932235748	852.812227907268	42.393877884465	541.341046074218	1021.931545052965	98.689968391948	581.285762190409	934.551024544436	36.816336416204	618.417507491420	1142.149434574618	48.362218362524	611.971275793390	538.986368433085	124.481824354885	403.676444846873	603.130332194079	88.645067452973	324.516844816248	703.708834468570	115.022574306990	345.635799317696	798.969221295362	33.265893433245	320.549465486135	904.840707671272	1090.370492762472	185.964546042063	1138.056190507693	974.789155446746	189.239732743358	787.901201093453	1091.610351932397	762.427934461922	834.038194726788	834.275403679480	759.010964794836	
90	39.622428571429	712.146748238983	997.946902390122	490.958178391303	881.938975076813	1436.116251548450	328.558452284387	975.960601891449	1364.536798147023	494.867568899977	877.521910229009	1431.456880750711	665.388844250017	867.073691292172	1492.478947554237	481.899337836175	935.675867145341	937.721138620066	618.267524479998	931.837090137453	960.137648935618	344.211858277176	999.270539698798	747.453432733882	587.421242181312	928.325707629154	632.081114223460	642.959346449664	1014.618320474997	587.975708635952	565.467717761773	1025.364047951601	497.201185725337	571.437924774832	964.179712286841	736.396989369517	366.983221700146	871.832408618420	625.836223044113	301.005000760655	951.264330276812	538.109283437536	361.088237844625	940.039953116720	453.519985471796	358.813735569631	873.582770274260	395.882711628098	353.185292202133	735.779418890662	345.484957253123	304.627702982320	727.106603201265	218.760594538351	364.683527236859	998.382411234488	406.970127963274	577.726524213537	928.492036406852	301.056129708732	636.855081962969	975.066620042714	207.731524961426	575.435534540282	846.197566305295	42.386102993592	541.507256574629	1015.459527111602	98.527342902319	581.533196272453	927.908922805529	36.755360340301	618.575707317464	1135.592712832482	47.891825697979	612.164653661525	539.987528449475	139.067905946448	404.218413439892	601.934719162805	99.673023851658	324.893592402729	704.017551187375	120.221765478656	345.683842861281	793.662730970331	32.573110299493	320.525432267280	901.240449184777	1090.640544283177	189.637889954676	1129.131218435993	963.904005657464	192.328112903950	795.200521670025	1090.126015629481	766.669053585510	851.622198911421	834.890219804174	762.452060712355	
91	39.635714285714	711.974545398476	998.272383002028	494.104200536174	879.558017121361	1436.945405829763	331.119247248246	975.295068987143	1365.219530712918	496.435583143343	878.310004209720	1431.544641591810	667.959376275150	865.923663481013	1492.970409720766	484.705622107307	936.359560562867	938.373978405202	620.024126944731	931.031137510078	960.524016316656	345.999873570417	998.150855713483	746.536115427099	590.196810051463	925.771031801736	631.964469372171	645.047856496579	1011.757042305803	587.185344815762	567.577956984288	1021.452440124312	496.444358086650	573.196262104735	968.464077161510	738.926311460356	368.959458710176	880.376708517307	626.200716209703	301.911306624537	962.684706095652	540.168720249971	361.573122699447	952.682187525429	454.370200452624	358.541651170037	884.339178483560	396.866308087890	353.232743539143	744.503586734739	351.343422806916	305.406100448404	732.181116284213	224.741694539451	364.988786367130	993.931368503736	406.373028239372	579.174016877006	923.470690623767	300.686092421606	637.916492216731	969.385391484819	207.308171351765	576.121755240808	839.547562824581	42.397346432155	541.686520489367	1008.976028653609	98.347024614329	581.791315376528	921.242074039627	36.696804128455	618.745744737820	1129.013508745878	47.371708178137	612.351369632725	542.234395678302	153.599710496333	404.986830930656	601.933600253844	111.027324590417	325.401000761507	705.279801498393	125.928481768140	345.862212308293	789.418432546923	32.119841159483	320.346807002033	897.452619468027	1090.732772458850	193.269059343965	1119.144526054662	952.592229702292	195.348904200194	802.944075553499	1088.686944549860	770.883334813458	869.975736454255	836.060203809120	765.719856132051	
92	39.649000000000	711.605688229572	998.570915461002	497.187575312183	877.062202159856	1437.662695283454	333.504625991107	974.534204929799	1365.802332399886	497.799805560203	879.068316672721	1431.562139179585	670.306186466435	864.757854046249	1493.405642565256	487.330462303311	936.873756199653	938.994834167307	621.655768473082	929.945887916319	960.824531547879	347.606847882157	996.846703362818	745.739488590208	592.668040181727	923.177372147360	631.893940246542	647.018507435073	1008.781142184076	586.456508007758	569.534118055306	1017.415336982490	495.736953477752	574.869304147216	972.410736021810	741.685117876995	370.772999184749	888.617210125237	626.989504994109	302.580485414416	973.705309819060	542.791415047112	361.818517480356	965.124087333937	455.886021881386	358.118837578635	895.207180250801	398.341128042179	353.115866271940	753.603579449596	357.219296925373	306.094855407838	738.046167803710	230.796560525005	365.319989674286	989.384842271157	405.817245741893	580.565327875843	918.378317348524	300.358427784671	638.953223084771	963.668410962831	206.925410865402	576.805437352941	832.874763594237	42.426519024136	541.880954366472	1002.479451304395	98.169184333238	582.057853010523	914.563012366095	36.646354635579	618.928559989693	1122.416463720432	46.851256944578	612.536240827264	545.817103756909	167.405423847516	405.964520381456	603.333479988254	122.155489910158	326.019531244830	707.693490402556	131.885584706247	346.115446810516	786.710476824725	32.001219037773	319.969248825092	893.440687927636	1090.654106070310	196.886703194191	1108.021682547955	941.001203492779	198.284275544981	811.166515491712	1087.327448176797	775.002827625852	889.021473163818	837.846449835128	768.738946726782	
